<svg width="512" height="512" xmlns="http://www.w3.org/2000/svg" xmlns:undefined="https://boxy-svg.com">

 <g>
  <title>Layer 1</title>
  <rect stroke-width="0" rx="60" id="svg_3" height="500" width="500" y="6" x="6" stroke="#000" fill="#ffffff"/>
  <rect stroke-width="0" rx="60" id="svg_1" height="512" width="512" y="0" x="0" stroke="#000" fill="#202020"/>
  <g>
   <path fill=" rgb(255, 255, 255)"  d="m156.8265,127.02116l6.806,29.167c-34.029,0 -116.674,0 -116.674,0c0,0 1.944,8.753 2.918,9.723c2.915,4.862 5.832,10.696 9.722,14.584c18.473,21.391 50.559,30.142 76.809,35.005c18.474,3.888 36.948,4.859 55.421,5.832l21.391,57.366l11.667,0l6.806,18.472l-9.725,0l-16.527,53.475l162.372,0l-16.529,-53.475l-9.724,0l6.807,-18.472l11.668,0c0,0 9.722,-59.31 39.864,-86.534c29.168,-27.223 65.143,-31.113 65.143,-31.113l0,-34.03l-308.215,0zm163.344,146.814c-7.78,4.863 -16.528,4.863 -22.363,8.751c-3.89,1.945 -5.834,7.778 -5.834,7.778c-3.888,-8.751 -8.75,-11.666 -14.584,-13.611c-5.833,-1.946 -16.529,-0.972 -31.112,-13.613c-9.722,-8.75 -10.697,-20.417 -9.722,-26.251l0,-0.972c0,-0.972 0,-0.972 0,-1.945c0,-0.974 0,-1.945 0.97,-2.918l0,0l0,0c1.945,-5.832 6.806,-11.666 16.528,-15.554c0,0 -6.806,9.722 0,19.445c3.89,5.834 11.669,8.75 18.473,4.86c2.919,-1.944 4.863,-5.833 5.837,-8.751c1.944,-6.804 1.944,-13.61 -3.891,-18.473c-8.75,-7.778 -10.694,-18.473 -4.861,-25.279c0,0 1.945,8.751 10.696,7.779c5.832,0 5.832,-1.945 3.888,-3.891c-0.972,-2.915 -13.613,-21.388 4.86,-35.002c0,0 11.669,-7.776 25.279,-6.805c-7.776,0.973 -16.527,5.835 -19.444,13.612c0,0 0,0 0,0.971c-2.917,7.78 -0.973,16.529 4.861,24.309c3.891,5.833 8.751,10.696 10.695,18.472c-2.915,-0.972 -4.86,0 -6.804,1.946c-1.947,1.944 -2.918,5.832 -1.947,8.751c0.973,1.944 2.917,3.888 4.863,3.888c0.973,0 0.973,0 1.944,0l0.973,0c2.915,-0.973 4.859,-4.862 3.889,-7.778c1.945,1.946 2.916,6.805 1.945,9.722c0,2.918 -1.945,5.834 -2.919,7.778c-0.971,1.944 -2.915,3.891 -3.888,5.835c-0.971,1.945 -1.944,3.89 -1.944,5.834c0,1.944 0,4.86 0.973,6.807c3.888,5.832 11.666,0 13.61,-4.863c2.918,-5.833 1.946,-12.64 -1.944,-18.473c0,0 6.806,3.889 11.669,17.501c3.888,11.667 -2.918,25.279 -10.696,30.14z" class="st0"/>
   <g  transform="matrix(0.239355 0 0 0.239355 263.94 142.017)">
    <path fill=" rgb(0, 191, 255)" d="m521.26942,35.06803l-240.7,489.5l185.9,0l-228.9,490.5l568.2,-667.6l-228.5,0l235.3,-312.4l-291.3,0z"/>
   </g>
  </g>
 </g>
</svg>