<?xml version="1.0" encoding="utf-8"?>
<svg viewBox="0 0 500 500" xmlns="http://www.w3.org/2000/svg" xmlns:bx="https://boxy-svg.com">
  <path class="st0" d="M 150.826 121.021 L 157.632 150.188 C 123.603 150.188 40.958 150.188 40.958 150.188 C 40.958 150.188 42.902 158.941 43.876 159.911 C 46.791 164.773 49.708 170.607 53.598 174.495 C 72.071 195.886 104.157 204.637 130.407 209.5 C 148.881 213.388 167.355 214.359 185.828 215.332 L 207.219 272.698 L 218.886 272.698 L 225.692 291.17 L 215.967 291.17 L 199.44 344.645 L 361.812 344.645 L 345.283 291.17 L 335.559 291.17 L 342.366 272.698 L 354.034 272.698 C 354.034 272.698 363.756 213.388 393.898 186.164 C 423.066 158.941 459.041 155.051 459.041 155.051 L 459.041 121.021 L 150.826 121.021 Z M 314.17 267.835 C 306.39 272.698 297.642 272.698 291.807 276.586 C 287.917 278.531 285.973 284.364 285.973 284.364 C 282.085 275.613 277.223 272.698 271.389 270.753 C 265.556 268.807 254.86 269.781 240.277 257.14 C 230.555 248.39 229.58 236.723 230.555 230.889 L 230.555 229.917 C 230.555 228.945 230.555 228.945 230.555 227.972 C 230.555 226.998 230.555 226.027 231.525 225.054 L 231.525 225.054 L 231.525 225.054 C 233.47 219.222 238.331 213.388 248.053 209.5 C 248.053 209.5 241.247 219.222 248.053 228.945 C 251.943 234.779 259.722 237.695 266.526 233.805 C 269.445 231.861 271.389 227.972 272.363 225.054 C 274.307 218.25 274.307 211.444 268.472 206.581 C 259.722 198.803 257.778 188.108 263.611 181.302 C 263.611 181.302 265.556 190.053 274.307 189.081 C 280.139 189.081 280.139 187.136 278.195 185.19 C 277.223 182.275 264.582 163.802 283.055 150.188 C 283.055 150.188 294.724 142.412 308.334 143.383 C 300.558 144.356 291.807 149.218 288.89 156.995 C 288.89 156.995 288.89 156.995 288.89 157.966 C 285.973 165.746 287.917 174.495 293.751 182.275 C 297.642 188.108 302.502 192.971 304.446 200.747 C 301.531 199.775 299.586 200.747 297.642 202.693 C 295.695 204.637 294.724 208.525 295.695 211.444 C 296.668 213.388 298.612 215.332 300.558 215.332 C 301.531 215.332 301.531 215.332 302.502 215.332 L 303.475 215.332 C 306.39 214.359 308.334 210.47 307.364 207.554 C 309.309 209.5 310.28 214.359 309.309 217.276 C 309.309 220.194 307.364 223.11 306.39 225.054 C 305.419 226.998 303.475 228.945 302.502 230.889 C 301.531 232.834 300.558 234.779 300.558 236.723 C 300.558 238.667 300.558 241.583 301.531 243.53 C 305.419 249.362 313.197 243.53 315.141 238.667 C 318.059 232.834 317.087 226.027 313.197 220.194 C 313.197 220.194 320.003 224.083 324.866 237.695 C 328.754 249.362 321.948 262.974 314.17 267.835 Z" style="fill: rgb(255, 255, 255);" bx:origin="0 0"/>
  <g transform="matrix(0.239355012774, 0, 0, 0.239355012774, 263.940307617188, 142.017181396484)" style="" bx:origin="-1.989725 -0.099713">
    <path d="M496.2,10L255.5,499.5h185.9L212.5,990l568.2-667.6H552.2L787.5,10H496.2z" style="fill: rgb(0, 191, 255);"/>
  </g>
</svg>